<svg xmlns="http://www.w3.org/2000/svg" xmlns:xlink="http://www.w3.org/1999/xlink" id="Layer_1" x="0px" y="0px" viewBox="0 0 196.9 55.4" style="enable-background:new 0 0 196.9 55.4;" xml:space="preserve">
<style type="text/css">
	.st0{fill:#FFFFFF;}
</style>
<g>
	<path class="st0" d="M70.7,17.9H75l7.2,18.9h-4.1l-1.8-4.5h-7l-1.8,4.5h-4.1L70.7,17.9z M75.8,29.2l-2.9-7.6L70,29.2H75.8z"></path>
	<path class="st0" d="M187.5,21.6l2.9,7.6h-5.8L187.5,21.6z M185.4,17.9l-7.2,18.9h4.1l1.8-4.5h7l1.8,4.5h4.1l-7.2-18.9H185.4z"></path>
	<polygon class="st0" points="85.2,17.9 89.2,17.9 89.2,33.7 98.5,33.7 98.5,36.8 85.2,36.8  "></polygon>
	<polygon class="st0" points="101.5,17.9 115.1,17.9 115.1,20.9 105.5,20.9 105.5,25.8 114,25.8 114,28.8 105.5,28.8 105.5,33.7    115.1,33.7 115.1,36.8 101.5,36.8  "></polygon>
	<path class="st0" d="M124.7,17.9h4.3l7.2,18.9h-4.1l-1.8-4.5h-7l-1.8,4.5h-4.1L124.7,17.9z M129.8,29.2l-2.9-7.6l-2.9,7.6H129.8z"></path>
	<polygon class="st0" points="140.7,20.9 134.9,20.9 134.9,17.9 150.5,17.9 150.5,20.9 144.7,20.9 144.7,36.8 140.7,36.8  "></polygon>
	<rect x="153.8" y="17.9" class="st0" width="4" height="18.9"></rect>
	<path class="st0" d="M163.7,34.5c-1.7-1.7-2.6-4-2.6-7c0-3.2,0.8-5.6,2.5-7.3c1.7-1.7,4.1-2.6,7.3-2.6c2,0,3.9,0.3,5.6,0.9V22   c-1.7-0.7-3.4-1-5.3-1c-2.1,0-3.7,0.5-4.6,1.6c-1,1.1-1.4,2.7-1.4,4.9c0,2.1,0.5,3.7,1.5,4.7c1,1,2.5,1.5,4.6,1.5   c1.9,0,3.7-0.3,5.3-1v3.5c-1.7,0.6-3.6,0.9-5.6,0.9C167.8,37,165.4,36.2,163.7,34.5"></path>
	<path class="st0" d="M40.5,18c-2.4,6.3-20,11.5-14,19.9c1.2,0,2.4-0.2,3.6-0.5c5.8-1.3,9.2-5.5,12.6-9.6c2.9-3.5,7.3-4.4,9.7-1.3   c1.9-8.3-3.6-18.9-12.6-16.5C41.2,12.2,41.7,14.9,40.5,18"></path>
	<path class="st0" d="M53.7,29.3c-0.3-1.2-0.8-2.1-1.4-2.8c-0.2,0.8-0.4,1.6-0.8,2.4C48.4,36,35,46.9,27.5,39.1   c-0.4-0.4-0.7-0.8-1-1.2C14.7,38.4,6.6,28,7.6,19.1c-7.6,7,0.6,36.2,28.9,31.1C46.2,48.5,55.9,37.4,53.7,29.3"></path>
	<path class="st0" d="M12.9,23.8c1.6,0.7,3.6-0.6,5.2-2.6c-2.5-1.3-3.9-4.2-2.3-7.4c1.6-3.4,4.9-4.2,5.5-1.5c0.5,2.4-1,6.2-3.1,8.8   c1.5,0.8,3.5,1,5.5,0.3c5.9-1.9,8.4-8.3,13.8-10.9c0.8-0.4,1.5-0.6,2.2-0.8c-5.6-8.5-26-9.9-31.6,6.7c-0.3,0.8-0.5,1.6-0.5,2.5   c0.2-0.2,0.3-0.3,0.5-0.4C10.4,17,10,22.6,12.9,23.8"></path>
	<path class="st0" d="M63.4,51v-0.9c0.4,0.2,1,0.3,1.5,0.3c0.7,0,0.9-0.3,0.9-0.7c0-0.4-0.2-0.5-0.7-0.7L64.7,49   c-0.8-0.2-1.3-0.6-1.3-1.6c0-0.9,0.6-1.6,1.9-1.6c0.8,0,1.2,0.1,1.5,0.3V47c-0.4-0.1-0.8-0.3-1.4-0.3c-0.5,0-0.8,0.2-0.8,0.6   c0,0.4,0.2,0.5,0.7,0.6l0.5,0.1c0.9,0.2,1.4,0.6,1.4,1.6c0,1.1-0.7,1.7-2,1.7C64.4,51.3,63.8,51.2,63.4,51"></path>
	<path class="st0" d="M67.7,47.2h1v0.4h0c0.3-0.3,0.7-0.4,1.2-0.4c0.5,0,0.8,0.1,1,0.5h0c0.4-0.3,0.9-0.5,1.3-0.5   c0.7,0,1.1,0.3,1.1,1.1v3h-1.1v-2.7c0-0.4-0.1-0.5-0.5-0.5c-0.2,0-0.5,0.1-0.7,0.2c0,0.1,0,0.1,0,0.1v2.9H70v-2.7   c0-0.4-0.1-0.5-0.5-0.5c-0.2,0-0.5,0.1-0.7,0.2v3.1h-1.1V47.2z"></path>
	<path class="st0" d="M74,50.2c0-0.8,0.5-1.1,1.4-1.2l0.9-0.1v-0.3c0-0.5-0.2-0.6-0.9-0.6c-0.4,0-0.8,0.1-1,0.1v-0.7   c0.4-0.1,0.9-0.2,1.4-0.2c1,0,1.5,0.3,1.5,1.2v2.9h-0.9l-0.1-0.3h0c-0.2,0.2-0.5,0.4-1,0.4C74.5,51.3,74,50.9,74,50.2 M76.2,50.4   v-0.9l-0.6,0.1c-0.4,0-0.5,0.2-0.5,0.5c0,0.4,0.2,0.5,0.6,0.5C75.9,50.6,76.1,50.5,76.2,50.4"></path>
	<path class="st0" d="M78.1,47.2h1v0.5h0c0.2-0.3,0.6-0.5,1-0.5c0.1,0,0.2,0,0.2,0v1c-0.1,0-0.2,0-0.3,0c-0.4,0-0.7,0.1-0.9,0.2v2.9   h-1.1V47.2z"></path>
	<path class="st0" d="M81.2,50.2V48h-0.5v-0.8h0.5v-1h1.1v1h0.9V48h-0.9V50c0,0.3,0.1,0.4,0.5,0.4c0.1,0,0.3,0,0.4-0.1v0.7   c-0.2,0.1-0.4,0.2-0.8,0.2C81.7,51.3,81.2,51,81.2,50.2"></path>
	<path class="st0" d="M85,49.8c0-0.8,0.5-1.3,1.2-1.6c-0.3-0.4-0.4-0.7-0.4-1c0-0.9,0.7-1.3,1.6-1.3c0.9,0,1.5,0.5,1.5,1.2   c0,0.7-0.5,1.1-1.2,1.4l0.9,1.1c0.1-0.3,0.2-0.6,0.3-1h0.9c-0.1,0.6-0.3,1.2-0.6,1.6l0.9,1h-1.3l-0.3-0.3c-0.4,0.3-0.9,0.4-1.4,0.4   C85.7,51.3,85,50.8,85,49.8 M88,50.3l-1.3-1.5c-0.3,0.2-0.5,0.4-0.5,0.9c0,0.6,0.3,0.9,1,0.9C87.5,50.5,87.7,50.5,88,50.3    M87.2,47.8L87.2,47.8c0.4-0.1,0.7-0.4,0.7-0.8c0-0.3-0.2-0.5-0.5-0.5c-0.3,0-0.5,0.2-0.5,0.6C86.9,47.3,87,47.6,87.2,47.8"></path>
	<path class="st0" d="M91.7,51v-0.9c0.4,0.2,1,0.3,1.5,0.3c0.7,0,0.9-0.3,0.9-0.7c0-0.4-0.2-0.5-0.7-0.7L93,49   c-0.8-0.2-1.3-0.6-1.3-1.6c0-0.9,0.6-1.6,1.9-1.6c0.8,0,1.2,0.1,1.5,0.3V47c-0.4-0.1-0.8-0.3-1.4-0.3c-0.5,0-0.8,0.2-0.8,0.6   c0,0.4,0.2,0.5,0.7,0.6l0.5,0.1c0.9,0.2,1.4,0.6,1.4,1.6c0,1.1-0.7,1.7-2,1.7C92.6,51.3,92.1,51.2,91.7,51"></path>
	<path class="st0" d="M95.9,50.1v-2.9H97v2.7c0,0.4,0.1,0.5,0.6,0.5c0.3,0,0.6-0.1,0.8-0.2v-3.1h1.1v4h-0.9l-0.1-0.4h0   c-0.3,0.3-0.7,0.4-1.2,0.4C96.4,51.3,95.9,50.9,95.9,50.1"></path>
	<path class="st0" d="M100,51v-0.8c0.3,0.1,0.6,0.2,1.2,0.2c0.5,0,0.7-0.2,0.7-0.4c0-0.3-0.1-0.4-0.5-0.4l-0.4-0.1   c-0.6-0.1-1-0.5-1-1.2c0-0.8,0.5-1.3,1.6-1.3c0.6,0,0.9,0.1,1.2,0.2v0.8c-0.2-0.1-0.6-0.2-1.1-0.2c-0.4,0-0.7,0.1-0.7,0.4   c0,0.3,0.1,0.3,0.5,0.4l0.4,0.1c0.8,0.2,1.1,0.5,1.1,1.2c0,0.8-0.6,1.3-1.6,1.3C100.9,51.3,100.4,51.2,100,51"></path>
	<path class="st0" d="M103.7,50.2V48h-0.5v-0.8h0.5v-1h1.1v1h0.9V48h-0.9V50c0,0.3,0.1,0.4,0.5,0.4c0.1,0,0.3,0,0.4-0.1v0.7   c-0.2,0.1-0.4,0.2-0.8,0.2C104.2,51.3,103.7,51,103.7,50.2"></path>
	<path class="st0" d="M106.1,50.2c0-0.8,0.5-1.1,1.4-1.2l0.9-0.1v-0.3c0-0.5-0.2-0.6-0.9-0.6c-0.4,0-0.8,0.1-1,0.1v-0.7   c0.4-0.1,0.9-0.2,1.4-0.2c1,0,1.5,0.3,1.5,1.2v2.9h-0.9l-0.1-0.3h0c-0.2,0.2-0.5,0.4-1,0.4C106.6,51.3,106.1,50.9,106.1,50.2    M108.3,50.4v-0.9l-0.6,0.1c-0.4,0-0.5,0.2-0.5,0.5c0,0.4,0.2,0.5,0.6,0.5C108,50.6,108.2,50.5,108.3,50.4"></path>
	<path class="st0" d="M110.2,45.7h1.1v0.9h-1.1V45.7z M110.2,47.2h1.1v4h-1.1V47.2z"></path>
	<path class="st0" d="M112.1,47.2h1v0.4h0c0.3-0.3,0.8-0.4,1.3-0.4c0.8,0,1.2,0.3,1.2,1.1v3h-1.1v-2.7c0-0.4-0.1-0.5-0.6-0.5   c-0.3,0-0.6,0.1-0.8,0.2v3.1h-1.1V47.2z"></path>
	<path class="st0" d="M116.2,50.2c0-0.8,0.5-1.1,1.4-1.2l0.9-0.1v-0.3c0-0.5-0.2-0.6-0.9-0.6c-0.4,0-0.8,0.1-1,0.1v-0.7   c0.4-0.1,0.9-0.2,1.4-0.2c1,0,1.5,0.3,1.5,1.2v2.9h-0.9l-0.1-0.3h0c-0.2,0.2-0.5,0.4-1,0.4C116.7,51.3,116.2,50.9,116.2,50.2    M118.4,50.4v-0.9l-0.6,0.1c-0.4,0-0.5,0.2-0.5,0.5c0,0.4,0.2,0.5,0.6,0.5C118,50.6,118.3,50.5,118.4,50.4"></path>
	<path class="st0" d="M120.2,51.1v-5.5h1.1v1.9h0c0.3-0.2,0.6-0.4,1.2-0.4c0.8,0,1.5,0.5,1.5,1.9v0.1c0,1.5-0.7,2.2-2.2,2.2   C121.3,51.3,120.7,51.2,120.2,51.1 M123,49.3v-0.1c0-0.9-0.3-1.2-0.9-1.2c-0.3,0-0.6,0.1-0.7,0.2v2.3c0.1,0.1,0.3,0.1,0.6,0.1   C122.5,50.5,123,50.3,123,49.3"></path>
	<rect x="124.7" y="45.5" class="st0" width="1.1" height="5.7"></rect>
	<path class="st0" d="M126.4,49.3v-0.1c0-1.3,0.8-2,1.9-2c1.3,0,1.8,0.7,1.8,2v0.4h-2.6c0.1,0.8,0.5,1,1.2,1c0.5,0,0.9-0.1,1.2-0.3   v0.7c-0.3,0.2-0.8,0.4-1.5,0.4C127,51.3,126.4,50.6,126.4,49.3 M127.5,48.8h1.5c0-0.7-0.2-0.9-0.7-0.9   C127.9,47.9,127.5,48.1,127.5,48.8"></path>
	<rect x="132.1" y="45.9" class="st0" width="1.2" height="5.3"></rect>
	<path class="st0" d="M134.2,47.2h1v0.4h0c0.3-0.3,0.8-0.4,1.3-0.4c0.8,0,1.2,0.3,1.2,1.1v3h-1.1v-2.7c0-0.4-0.1-0.5-0.6-0.5   c-0.3,0-0.6,0.1-0.8,0.2v3.1h-1.1V47.2z"></path>
	<path class="st0" d="M138.8,48h-0.5v-0.8h0.5v-0.5c0-0.9,0.6-1.3,1.4-1.3c0.4,0,0.7,0.1,0.8,0.1v0.7c-0.1,0-0.3-0.1-0.5-0.1   c-0.4,0-0.6,0.2-0.6,0.6v0.3h0.8V48h-0.8v3.2h-1.1V48z"></path>
	<path class="st0" d="M141.2,47.2h1v0.5h0c0.2-0.3,0.6-0.5,1-0.5c0.1,0,0.2,0,0.2,0v1c-0.1,0-0.2,0-0.3,0c-0.4,0-0.7,0.1-0.9,0.2   v2.9h-1.1V47.2z"></path>
	<path class="st0" d="M143.7,50.2c0-0.8,0.5-1.1,1.4-1.2l0.9-0.1v-0.3c0-0.5-0.2-0.6-0.9-0.6c-0.4,0-0.8,0.1-1,0.1v-0.7   c0.4-0.1,0.9-0.2,1.4-0.2c1,0,1.5,0.3,1.5,1.2v2.9h-0.9l-0.1-0.3h0c-0.2,0.2-0.5,0.4-1,0.4C144.2,51.3,143.7,50.9,143.7,50.2    M146,50.4v-0.9l-0.6,0.1c-0.4,0-0.5,0.2-0.5,0.5c0,0.4,0.2,0.5,0.6,0.5C145.6,50.6,145.8,50.5,146,50.4"></path>
	<path class="st0" d="M147.6,51v-0.8c0.3,0.1,0.6,0.2,1.2,0.2c0.5,0,0.7-0.2,0.7-0.4c0-0.3-0.1-0.4-0.5-0.4l-0.4-0.1   c-0.6-0.1-1-0.5-1-1.2c0-0.8,0.5-1.3,1.6-1.3c0.6,0,0.9,0.1,1.2,0.2v0.8c-0.2-0.1-0.6-0.2-1.1-0.2c-0.4,0-0.7,0.1-0.7,0.4   c0,0.3,0.1,0.3,0.5,0.4l0.4,0.1c0.8,0.2,1.1,0.5,1.1,1.2c0,0.8-0.6,1.3-1.6,1.3C148.4,51.3,147.9,51.2,147.6,51"></path>
	<path class="st0" d="M151.3,50.2V48h-0.5v-0.8h0.5v-1h1.1v1h0.9V48h-0.9V50c0,0.3,0.1,0.4,0.5,0.4c0.1,0,0.3,0,0.4-0.1v0.7   c-0.2,0.1-0.4,0.2-0.8,0.2C151.7,51.3,151.3,51,151.3,50.2"></path>
	<path class="st0" d="M153.9,47.2h1v0.5h0c0.2-0.3,0.6-0.5,1-0.5c0.1,0,0.2,0,0.2,0v1c-0.1,0-0.2,0-0.3,0c-0.4,0-0.7,0.1-0.9,0.2   v2.9h-1.1V47.2z"></path>
	<path class="st0" d="M156.7,50.1v-2.9h1.1v2.7c0,0.4,0.1,0.5,0.6,0.5c0.3,0,0.6-0.1,0.8-0.2v-3.1h1.1v4h-0.9l-0.1-0.4h0   c-0.3,0.3-0.7,0.4-1.2,0.4C157.2,51.3,156.7,50.9,156.7,50.1"></path>
	<path class="st0" d="M160.8,49.3v-0.1c0-1.4,0.8-2.1,2-2.1c0.5,0,0.9,0.1,1.1,0.2v0.8c-0.3-0.1-0.5-0.2-1-0.2c-0.6,0-1,0.4-1,1.1   v0.2c0,0.9,0.3,1.2,1.1,1.2c0.5,0,0.8-0.1,1-0.2V51c-0.2,0.1-0.6,0.3-1.2,0.3C161.5,51.3,160.8,50.6,160.8,49.3"></path>
	<path class="st0" d="M164.9,50.2V48h-0.5v-0.8h0.5v-1h1.1v1h0.9V48h-0.9V50c0,0.3,0.1,0.4,0.5,0.4c0.1,0,0.3,0,0.4-0.1v0.7   c-0.2,0.1-0.4,0.2-0.8,0.2C165.3,51.3,164.9,51,164.9,50.2"></path>
	<path class="st0" d="M167.4,50.1v-2.9h1.1v2.7c0,0.4,0.1,0.5,0.6,0.5c0.3,0,0.6-0.1,0.8-0.2v-3.1h1.1v4H170l-0.1-0.4h0   c-0.3,0.3-0.7,0.4-1.2,0.4C167.9,51.3,167.4,50.9,167.4,50.1"></path>
	<path class="st0" d="M171.7,47.2h1v0.5h0c0.2-0.3,0.6-0.5,1-0.5c0.1,0,0.2,0,0.2,0v1c-0.1,0-0.2,0-0.3,0c-0.4,0-0.7,0.1-0.9,0.2   v2.9h-1.1V47.2z"></path>
	<path class="st0" d="M174.4,49.3v-0.1c0-1.3,0.8-2,1.9-2c1.3,0,1.8,0.7,1.8,2v0.4h-2.6c0.1,0.8,0.5,1,1.2,1c0.5,0,0.9-0.1,1.2-0.3   v0.7c-0.3,0.2-0.8,0.4-1.5,0.4C175.1,51.3,174.4,50.6,174.4,49.3 M175.5,48.8h1.5c0-0.7-0.2-0.9-0.7-0.9   C175.9,47.9,175.6,48.1,175.5,48.8"></path>
</g>
</svg>